<?xml version="1.0" encoding="UTF-8" standalone="no"?>
<svg width="21px" height="21px" viewBox="0 0 21 21" version="1.1" xmlns="http://www.w3.org/2000/svg" xmlns:xlink="http://www.w3.org/1999/xlink" xmlns:sketch="http://www.bohemiancoding.com/sketch/ns">
    <!-- Generator: Sketch 3.0.4 (8053) - http://www.bohemiancoding.com/sketch -->
    <title>settings</title>
    <desc>Created with Sketch.</desc>
    <defs></defs>
    <g id="Page-1" stroke="none" stroke-width="1" fill="none" fill-rule="evenodd" sketch:type="MSPage">
        <g id="Desktop" sketch:type="MSArtboardGroup" transform="translate(-990.000000, -13.000000)" fill="#FFFFFF">
            <g id="Settings-Icon" sketch:type="MSLayerGroup" transform="translate(990.000000, 13.000000)">
                <path d="M20.2321875,8.97091406 L18.1518984,8.623875 C18.0007031,8.00573437 17.78025,7.41485156 17.4931406,6.86374219 L18.8248828,5.21252344 C19.108125,4.8635625 19.0952578,4.36146094 18.7966406,4.02466406 L17.9692734,3.09349219 C17.6693672,2.75704688 17.1720469,2.68589063 16.7926641,2.9255625 L15.0136172,4.04390625 C14.2311328,3.49720313 13.3447734,3.09349219 12.3886172,2.85923438 L12.0405703,0.767789063 C11.9675391,0.3249375 11.5843125,0 11.1344531,0 L9.887625,0 C9.43867969,0 9.05416406,0.3249375 8.98272656,0.767789063 L8.63280469,2.85989062 C7.84228125,3.0534375 7.10109375,3.36585937 6.4246875,3.77732812 L4.73278125,2.569875 C4.36814062,2.30936719 3.86730469,2.35010156 3.54909375,2.66763281 L2.66824219,3.54911719 C2.35071094,3.86732812 2.30997656,4.36816406 2.57116406,4.73280469 L3.78142969,6.42794531 C3.37382812,7.09924219 3.06461719,7.83621094 2.87109375,8.61967969 L0.767742187,8.97091406 C0.325570312,9.04394531 -1.77635684e-15,9.42721875 -1.77635684e-15,9.87707813 L-1.77635684e-15,11.1229219 C-1.77635684e-15,11.5727813 0.325570312,11.9560547 0.767742187,12.0290859 L2.87109375,12.3803203 C3.03002344,13.0250156 3.26074219,13.6408828 3.56739844,14.2118906 L2.24172656,15.8537812 C1.95944531,16.2024141 1.97130469,16.7048438 2.26992187,17.0413359 L3.09665625,17.9725078 C3.39658594,18.3095859 3.8941875,18.3794531 4.27359375,18.1403906 L6.07828125,17.0067188 C6.84189844,17.5290234 7.70578125,17.9129062 8.63280469,18.1403906 L8.98272656,20.2321875 C9.05416406,20.6750859 9.43867969,21 9.887625,21 L11.1344531,21 C11.5843125,21 11.9675391,20.6750859 12.0405703,20.2322109 L12.3892031,18.1404141 C13.1698594,17.9494687 13.9016484,17.6424844 14.5720312,17.2380703 L16.3344375,18.4967813 C16.6984453,18.75825 17.1996328,18.7172344 17.5175156,18.3986953 L18.3986953,17.5175156 C18.715875,17.2002656 18.7588359,16.6997109 18.4954219,16.3344375 L17.2406719,14.5752422 C17.6494687,13.9016953 17.9602969,13.1634141 18.1526016,12.3764297 L20.2328672,12.0290625 C20.6763281,11.9560313 21.0005859,11.5727578 21.0005859,11.1228984 L21.0005859,9.87705469 C20.9999531,9.42721875 20.6756953,9.04394531 20.2321875,8.97091406 L20.2321875,8.97091406 Z M10.5332812,14.4375 C8.359125,14.4375 6.59578125,12.6738281 6.59578125,10.5 C6.59578125,8.32584375 8.359125,6.5625 10.5332812,6.5625 C12.7070625,6.5625 14.4707344,8.32584375 14.4707344,10.5 C14.4707344,12.6738281 12.7070625,14.4375 10.5332812,14.4375 L10.5332812,14.4375 Z" id="settings" sketch:type="MSShapeGroup"></path>
            </g>
        </g>
    </g>
</svg>