<svg xmlns="http://www.w3.org/2000/svg" width="83" height="28" viewBox="0 0 83 28" version="1.1"><title>talc-logo</title><desc>Created with Sketch.</desc><g stroke="none" stroke-width="1" fill="none" fill-rule="evenodd"><g transform="translate(-9.000000, -9.000000)"><g transform="translate(9.000000, 9.000000)"><path d="M34.74 4.5L38.4 3.9 38.4 8.64 44.03 8.64 44.03 11.67 38.4 11.67 38.4 18.06C38.4 19.32 38.6 20.22 39.01 20.76 39.41 21.3 40.1 21.57 41.06 21.57 41.73 21.57 42.32 21.5 42.83 21.36 43.35 21.22 43.75 21.09 44.06 20.97L44.66 23.85C44.24 24.03 43.68 24.22 43 24.41 42.31 24.6 41.51 24.69 40.58 24.69 39.45 24.69 38.51 24.54 37.75 24.24 37 23.94 36.4 23.51 35.95 22.94 35.51 22.37 35.2 21.68 35.01 20.87 34.83 20.06 34.74 19.13 34.74 18.09L34.74 4.5ZM52.83 8.25C54.04 8.25 55.06 8.4 55.88 8.7 56.71 9 57.37 9.42 57.86 9.96 58.36 10.5 58.71 11.16 58.92 11.93 59.13 12.7 59.24 13.54 59.24 14.46L59.24 23.97C58.67 24.09 57.82 24.24 56.68 24.41 55.54 24.58 54.26 24.66 52.83 24.66 51.88 24.66 51.01 24.57 50.23 24.39 49.44 24.21 48.77 23.92 48.22 23.52 47.66 23.12 47.23 22.6 46.92 21.96 46.6 21.32 46.45 20.53 46.45 19.59 46.45 18.69 46.62 17.93 46.98 17.31 47.33 16.69 47.81 16.19 48.41 15.8 49.02 15.41 49.72 15.13 50.51 14.96 51.31 14.79 52.14 14.7 53.01 14.7 53.41 14.7 53.84 14.73 54.28 14.78 54.72 14.83 55.2 14.91 55.7 15.03L55.7 14.43C55.7 14.01 55.65 13.61 55.55 13.23 55.45 12.85 55.27 12.52 55.02 12.23 54.77 11.94 54.44 11.71 54.02 11.55 53.61 11.39 53.09 11.31 52.46 11.31 51.62 11.31 50.84 11.37 50.14 11.49 49.43 11.61 48.86 11.75 48.41 11.91L47.96 8.97C48.42 8.81 49.1 8.65 49.98 8.49 50.87 8.33 51.82 8.25 52.83 8.25ZM53.13 21.78C54.26 21.78 55.12 21.72 55.7 21.6L55.7 17.58C55.5 17.52 55.21 17.46 54.82 17.4 54.44 17.34 54.02 17.31 53.55 17.31 53.15 17.31 52.74 17.34 52.33 17.4 51.92 17.46 51.54 17.57 51.21 17.73 50.88 17.89 50.61 18.12 50.41 18.41 50.21 18.7 50.11 19.06 50.11 19.5 50.11 20.36 50.38 20.96 50.92 21.29 51.47 21.62 52.2 21.78 53.13 21.78ZM68.38 24.63C67.29 24.61 66.39 24.49 65.67 24.27 64.96 24.05 64.39 23.74 63.96 23.33 63.54 22.92 63.24 22.41 63.07 21.8 62.9 21.19 62.81 20.49 62.81 19.71L62.81 1.65 66.47 1.05 66.47 19.02C66.47 19.46 66.51 19.83 66.58 20.13 66.65 20.43 66.78 20.69 66.96 20.9 67.14 21.11 67.39 21.27 67.7 21.38 68.01 21.49 68.41 21.57 68.89 21.63L68.38 24.63ZM70.31 16.5C70.31 15.34 70.49 14.26 70.85 13.25 71.22 12.24 71.73 11.36 72.41 10.62 73.09 9.88 73.91 9.3 74.87 8.88 75.84 8.46 76.93 8.25 78.14 8.25 79.63 8.25 81.04 8.52 82.37 9.06L81.59 12.03C81.17 11.85 80.69 11.7 80.15 11.58 79.62 11.46 79.05 11.4 78.44 11.4 77.01 11.4 75.92 11.85 75.18 12.74 74.43 13.63 74.06 14.88 74.06 16.5 74.06 18.06 74.41 19.3 75.12 20.21 75.82 21.12 77.01 21.57 78.69 21.57 79.31 21.57 79.93 21.51 80.53 21.39 81.14 21.27 81.66 21.12 82.1 20.94L82.62 23.94C82.21 24.14 81.6 24.32 80.79 24.48 79.97 24.64 79.13 24.72 78.26 24.72 76.91 24.72 75.74 24.52 74.74 24.11 73.74 23.7 72.91 23.13 72.26 22.4 71.6 21.67 71.11 20.8 70.79 19.79 70.47 18.78 70.31 17.68 70.31 16.5L70.31 16.5Z" fill="#FFFFFF"/><path d="M28.23 14C28.23 6.27 21.91 0 14.11 0 6.32 0 0 6.27 0 14 0 21.73 6.32 28 14.11 28 21.91 28 28.23 21.73 28.23 14Z" fill="#FFFFFF"/><path d="M1.34 14C1.34 7 7.06 1.33 14.11 1.33 21.17 1.33 26.88 7 26.88 14 26.88 21 21.17 26.67 14.11 26.67 7.06 26.67 1.34 21 1.34 14Z" fill="#FFD9E1"/><path d="M16.15 7.68C16.15 6.57 15.24 5.67 14.11 5.67 12.99 5.67 12.07 6.57 12.07 7.68 12.07 8.79 12.99 9.69 14.11 9.69 15.24 9.69 16.15 8.79 16.15 7.68ZM20.77 12.63C21.74 12.07 22.06 10.83 21.5 9.87 20.94 8.9 19.7 8.56 18.72 9.12 17.75 9.68 17.43 10.91 17.99 11.88 18.55 12.85 19.79 13.18 20.77 12.63ZM18.72 19.01C19.7 19.57 20.94 19.23 21.5 18.27 22.06 17.3 21.74 16.06 20.77 15.51 19.79 14.95 18.55 15.29 17.99 16.26 17.43 17.22 17.75 18.46 18.72 19.01ZM12.07 20.46C12.07 21.57 12.99 22.47 14.11 22.47 15.24 22.47 16.15 21.57 16.15 20.46 16.15 19.34 15.24 18.44 14.11 18.44 12.99 18.44 12.07 19.34 12.07 20.46ZM7.46 15.51C6.49 16.06 6.16 17.3 6.73 18.27 7.29 19.23 8.53 19.57 9.5 19.01 10.47 18.46 10.8 17.22 10.24 16.26 9.68 15.29 8.43 14.95 7.46 15.51ZM9.5 9.12C8.53 8.56 7.29 8.9 6.73 9.87 6.16 10.83 6.49 12.07 7.46 12.63 8.43 13.18 9.68 12.85 10.24 11.88 10.8 10.91 10.47 9.68 9.5 9.12Z" fill="#FF99AF"/><path d="M13.42 7.68C13.42 7.31 13.73 7 14.11 7 14.5 7 14.81 7.31 14.81 7.68 14.81 8.05 14.5 8.36 14.11 8.36 13.73 8.36 13.42 8.05 13.42 7.68ZM19.4 10.27C19.72 10.09 20.14 10.2 20.34 10.53 20.53 10.87 20.42 11.28 20.09 11.47 19.77 11.66 19.35 11.54 19.15 11.21 18.96 10.88 19.07 10.46 19.4 10.27ZM20.09 16.66C20.42 16.85 20.53 17.27 20.34 17.6 20.14 17.93 19.72 18.05 19.4 17.86 19.07 17.67 18.96 17.25 19.15 16.92 19.35 16.59 19.77 16.48 20.09 16.66ZM14.81 20.46C14.81 20.83 14.5 21.13 14.11 21.13 13.73 21.13 13.42 20.83 13.42 20.46 13.42 20.08 13.73 19.78 14.11 19.78 14.5 19.78 14.81 20.08 14.81 20.46ZM8.83 17.86C8.5 18.05 8.08 17.93 7.89 17.6 7.7 17.27 7.81 16.85 8.13 16.66 8.46 16.48 8.88 16.59 9.07 16.92 9.27 17.25 9.16 17.67 8.83 17.86ZM8.13 11.47C7.81 11.28 7.7 10.87 7.89 10.53 8.08 10.2 8.5 10.09 8.83 10.27 9.16 10.46 9.27 10.88 9.07 11.21 8.88 11.54 8.46 11.66 8.13 11.47Z" fill="#FFFFFF"/></g></g></g></svg>